<?xml version="1.0" encoding="UTF-8" standalone="no"?>
<!-- Created with Inkscape (http://www.inkscape.org/) -->

<svg
   xmlns:dc="http://purl.org/dc/elements/1.1/"
   xmlns:cc="http://creativecommons.org/ns#"
   xmlns:rdf="http://www.w3.org/1999/02/22-rdf-syntax-ns#"
   xmlns:svg="http://www.w3.org/2000/svg"
   xmlns="http://www.w3.org/2000/svg"
   xmlns:sodipodi="http://sodipodi.sourceforge.net/DTD/sodipodi-0.dtd"
   xmlns:inkscape="http://www.inkscape.org/namespaces/inkscape"
   version="1.1"
   id="svg95915"
   xml:space="preserve"
   width="800"
   height="800"
   viewBox="0 0 800 800"
   sodipodi:docname="small-plants-publicdomainvectors.org.svg"
   inkscape:version="0.92.4 (5da689c313, 2019-01-14)"><metadata
     id="metadata95921"><rdf:RDF><cc:Work
         rdf:about=""><dc:format>image/svg+xml</dc:format><dc:type
           rdf:resource="http://purl.org/dc/dcmitype/StillImage" /><dc:title></dc:title></cc:Work></rdf:RDF></metadata><defs
     id="defs95919"><clipPath
       clipPathUnits="userSpaceOnUse"
       id="clipPath95931"><path
         d="M 0,600 H 600 V 0 H 0 Z"
         id="path95929"
         inkscape:connector-curvature="0" /></clipPath></defs><sodipodi:namedview
     pagecolor="#ffffff"
     bordercolor="#666666"
     borderopacity="1"
     objecttolerance="10"
     gridtolerance="10"
     guidetolerance="10"
     inkscape:pageopacity="0"
     inkscape:pageshadow="2"
     inkscape:window-width="797"
     inkscape:window-height="480"
     id="namedview95917"
     showgrid="false"
     inkscape:zoom="0.295"
     inkscape:cx="400"
     inkscape:cy="400"
     inkscape:window-x="0"
     inkscape:window-y="0"
     inkscape:window-maximized="0"
     inkscape:current-layer="g95923" /><g
     id="g95923"
     inkscape:groupmode="layer"
     inkscape:label="small-plants-publicdomainvectors.org"
     transform="matrix(1.3333333,0,0,-1.3333333,0,800)"><g
       id="g95925"><g
         id="g95927"
         clip-path="url(#clipPath95931)"><path
           d="M 0.783,0.226 H 599.827 V 599.27 H 0.783 Z"
           style="fill:#faf6e1;fill-opacity:1;fill-rule:evenodd;stroke:none"
           id="path95933"
           inkscape:connector-curvature="0" /><path
           d="m 123.186,553.376 c 31.096,-15.174 52.522,-47.098 52.522,-84.03 0,-36.931 -21.426,-68.856 -52.522,-84.031 l -8.317,84.907 z"
           style="fill:#93c733;fill-opacity:1;fill-rule:evenodd;stroke:none"
           id="path95935"
           inkscape:connector-curvature="0" /><path
           d="m 145.08,538.522 c 18.814,-17.094 30.628,-41.753 30.628,-69.176 0,-33.2 -17.315,-62.35 -43.406,-78.926 30.501,47.035 34.122,96.458 12.778,148.102"
           style="fill:#87b82b;fill-opacity:1;fill-rule:evenodd;stroke:none"
           id="path95937"
           inkscape:connector-curvature="0" /><path
           d="M 123.184,553.379 C 92.085,538.205 70.66,506.281 70.66,469.349 c 0,-36.932 21.425,-68.857 52.524,-84.031 z"
           style="fill:#a2d642;fill-opacity:1;fill-rule:evenodd;stroke:none"
           id="path95939"
           inkscape:connector-curvature="0" /><path
           d="M 118.922,551.162 C 90.146,535.233 70.66,504.568 70.66,469.349 c 0,-29.064 13.272,-55.025 34.082,-72.163 -20.824,49.906 -23.871,100.799 14.18,153.976"
           style="fill:#b6e65c;fill-opacity:1;fill-rule:evenodd;stroke:none"
           id="path95941"
           inkscape:connector-curvature="0" /><path
           d="m 123.184,545.715 2.408,-141.587 -2.408,-82.727 h -14.447 c 11.238,66.051 12.528,145.611 14.447,224.314"
           style="fill:#87b82b;fill-opacity:1;fill-rule:evenodd;stroke:none"
           id="path95943"
           inkscape:connector-curvature="0" /><path
           d="M 123.184,545.715 V 321.401 h 14.447 c -11.237,66.051 -12.527,145.611 -14.447,224.314"
           style="fill:#74a120;fill-opacity:1;fill-rule:evenodd;stroke:none"
           id="path95945"
           inkscape:connector-curvature="0" /><path
           d="m 77.785,310.857 c -0.647,-0.268 -1.354,-0.416 -2.098,-0.416 -3.028,0 -5.484,2.455 -5.484,5.484 0,2.682 1.926,4.914 4.47,5.389 1.139,4.845 5.486,8.452 10.677,8.452 0.997,0 1.963,-0.134 2.88,-0.383 1.296,3.711 4.823,6.376 8.974,6.388 1.147,4.069 4.887,7.051 9.324,7.051 0.392,0 0.779,-0.023 1.16,-0.07 0.708,3.757 4.004,6.599 7.966,6.599 2.733,0 5.147,-1.351 6.616,-3.421 1.408,1.003 3.131,1.592 4.992,1.592 4.63,0 8.406,-3.652 8.608,-8.232 1.576,1.153 3.52,1.835 5.624,1.835 5.263,0 9.53,-4.267 9.53,-9.531 0,-0.27 -0.01,-0.534 -0.031,-0.798 1.269,0.599 2.687,0.934 4.184,0.934 5.427,0 9.827,-4.401 9.827,-9.829 0,-5.428 -4.4,-9.828 -9.827,-9.828 -1.044,0 -2.048,0.162 -2.991,0.463 -1.504,-2.864 -4.462,-4.845 -7.891,-4.961 -1.132,-4.179 -4.951,-7.253 -9.488,-7.253 -2.949,0 -5.593,1.299 -7.395,3.356 -1.693,-2.76 -4.738,-4.6 -8.213,-4.6 -3.405,0 -6.396,1.768 -8.108,4.436 -0.877,-0.299 -1.817,-0.462 -2.794,-0.462 -3.424,0 -6.385,1.992 -7.785,4.88 -0.432,-0.066 -0.873,-0.102 -1.323,-0.102 -2.556,0 -4.852,1.114 -6.431,2.881 -1.95,-1.788 -4.552,-2.881 -7.408,-2.881 -2.933,0 -5.598,1.151 -7.565,3.027"
           style="fill:#7d5125;fill-opacity:1;fill-rule:evenodd;stroke:none"
           id="path95947"
           inkscape:connector-curvature="0" /><path
           d="m 70.611,317.999 c 0.694,1.698 2.215,2.971 4.062,3.315 1.139,4.845 5.486,8.452 10.677,8.452 0.997,0 1.963,-0.134 2.88,-0.383 1.296,3.711 4.823,6.376 8.974,6.388 1.147,4.069 4.887,7.051 9.324,7.051 0.392,0 0.779,-0.023 1.16,-0.07 0.708,3.757 4.004,6.599 7.966,6.599 2.733,0 5.147,-1.351 6.616,-3.421 1.408,1.003 3.131,1.592 4.992,1.592 4.63,0 8.406,-3.652 8.608,-8.232 1.576,1.153 3.52,1.835 5.624,1.835 5.263,0 9.53,-4.267 9.53,-9.531 0,-0.27 -0.01,-0.534 -0.031,-0.798 0.237,0.113 0.48,0.216 0.73,0.309 -0.438,-5.024 -4.655,-8.965 -9.791,-8.965 -1.042,0 -2.046,0.163 -2.99,0.464 -1.503,-2.865 -4.461,-4.845 -7.892,-4.962 -1.132,-4.179 -4.949,-7.252 -9.487,-7.252 -2.948,0 -5.594,1.298 -7.396,3.356 -1.693,-2.76 -4.736,-4.6 -8.211,-4.6 -3.405,0 -6.398,1.768 -8.11,4.435 -0.876,-0.299 -1.817,-0.461 -2.793,-0.461 -3.425,0 -6.385,1.991 -7.787,4.879 -0.43,-0.066 -0.871,-0.101 -1.321,-0.101 -2.556,0 -4.852,1.113 -6.43,2.881 -1.952,-1.789 -4.553,-2.881 -7.41,-2.881 -0.506,0 -1.005,0.035 -1.494,0.101"
           style="fill:#996633;fill-opacity:1;fill-rule:evenodd;stroke:none"
           id="path95949"
           inkscape:connector-curvature="0" /><path
           d="m 76.674,325.507 c 2.007,2.59 5.146,4.259 8.676,4.259 0.997,0 1.963,-0.134 2.88,-0.383 1.296,3.711 4.823,6.376 8.974,6.388 1.147,4.069 4.887,7.051 9.324,7.051 0.392,0 0.779,-0.023 1.16,-0.07 0.708,3.757 4.004,6.599 7.966,6.599 2.733,0 5.147,-1.351 6.616,-3.421 1.408,1.003 3.131,1.592 4.992,1.592 h 0.031 c 0.679,-1.043 1.184,-2.208 1.477,-3.455 2.543,-0.476 4.47,-2.708 4.47,-5.39 0,-3.029 -2.456,-5.484 -5.484,-5.484 -0.742,0 -1.451,0.148 -2.097,0.416 -1.969,-1.876 -4.633,-3.027 -7.565,-3.027 -2.857,0 -5.459,1.092 -7.409,2.881 -1.58,-1.767 -3.874,-2.881 -6.432,-2.881 -0.449,0 -0.89,0.035 -1.32,0.102 -1.402,-2.888 -4.361,-4.88 -7.786,-4.88 -0.979,0 -1.917,0.162 -2.793,0.461 -1.714,-2.668 -4.705,-4.435 -8.11,-4.435 -3.071,0 -5.806,1.438 -7.57,3.677"
           style="fill:#b07c48;fill-opacity:1;fill-rule:evenodd;stroke:none"
           id="path95951"
           inkscape:connector-curvature="0" /><path
           d="m 292.111,576.026 c -12.659,-35.31 -5.136,-76.303 22.808,-104.972 27.944,-28.668 68.731,-37.239 104.352,-25.489 l -57.787,72.203 z"
           style="fill:#93c733;fill-opacity:1;fill-rule:evenodd;stroke:none"
           id="path95953"
           inkscape:connector-curvature="0" /><path
           d="m 286.355,547.928 c -1.67,-27.505 7.815,-55.587 28.564,-76.874 25.12,-25.771 60.618,-35.298 93.413,-28.424 -59.266,13.433 -99.472,49.059 -121.977,105.298"
           style="fill:#87b82b;fill-opacity:1;fill-rule:evenodd;stroke:none"
           id="path95955"
           inkscape:connector-curvature="0" /><path
           d="m 292.108,576.028 c 35.621,11.751 76.411,3.18 104.355,-25.488 27.944,-28.669 35.465,-69.663 22.808,-104.972 z"
           style="fill:#a2d642;fill-opacity:1;fill-rule:evenodd;stroke:none"
           id="path95957"
           inkscape:connector-curvature="0" /><path
           d="m 297.096,577.532 c 34.39,9.408 72.717,0.346 99.367,-26.992 21.99,-22.561 31.329,-52.755 28.143,-81.805 -21.596,54.495 -57.737,96.308 -127.51,108.797"
           style="fill:#b6e65c;fill-opacity:1;fill-rule:evenodd;stroke:none"
           id="path95959"
           inkscape:connector-curvature="0" /><path
           d="m 561.473,531.479 c 11.025,-32.799 3.333,-70.47 -22.969,-96.397 -26.301,-25.927 -64.076,-33.081 -96.715,-21.587 l 54.627,65.528 z"
           style="fill:#93c733;fill-opacity:1;fill-rule:evenodd;stroke:none"
           id="path95961"
           inkscape:connector-curvature="0" /><path
           d="m 566.266,505.458 c 1.035,-25.399 -8.232,-51.124 -27.762,-70.376 -23.641,-23.307 -56.561,-31.438 -86.68,-24.496 54.908,11.298 92.648,43.416 114.442,94.872"
           style="fill:#87b82b;fill-opacity:1;fill-rule:evenodd;stroke:none"
           id="path95963"
           inkscape:connector-curvature="0" /><path
           d="m 561.477,531.481 c -32.64,11.493 -70.416,4.341 -96.716,-21.586 -26.303,-25.928 -33.995,-63.598 -22.971,-96.397 z"
           style="fill:#a2d642;fill-opacity:1;fill-rule:evenodd;stroke:none"
           id="path95965"
           inkscape:connector-curvature="0" /><path
           d="m 556.902,532.96 c -31.544,9.311 -67.062,1.659 -92.141,-23.065 -20.699,-20.404 -29.87,-48.081 -27.465,-74.932 20.922,49.865 55.024,87.763 119.606,97.997"
           style="fill:#b6e65c;fill-opacity:1;fill-rule:evenodd;stroke:none"
           id="path95967"
           inkscape:connector-curvature="0" /><path
           d="M 310.944,554.845 C 413.076,458.682 449.539,460.44 431.173,321.401 h -14.446 c 26.457,151.988 -37.234,149.532 -105.783,233.444"
           style="fill:#87b82b;fill-opacity:1;fill-rule:evenodd;stroke:none"
           id="path95969"
           inkscape:connector-curvature="0" /><path
           d="M 310.944,554.845 C 409.666,453.561 440.967,467.326 431.173,321.401 h 14.445 c -2.55,151.705 -23.49,129.424 -134.674,233.444"
           style="fill:#74a120;fill-opacity:1;fill-rule:evenodd;stroke:none"
           id="path95971"
           inkscape:connector-curvature="0" /><path
           d="M 518.728,488.515 C 452.57,426.223 428.95,427.361 440.849,337.295 h 9.357 c -17.139,98.455 24.118,96.864 68.522,151.22"
           style="fill:#74a120;fill-opacity:1;fill-rule:evenodd;stroke:none"
           id="path95973"
           inkscape:connector-curvature="0" /><path
           d="m 518.728,488.515 c -63.949,-65.609 -84.224,-56.693 -77.879,-151.22 h -9.36 c 1.653,98.271 15.217,83.838 87.239,151.22"
           style="fill:#87b82b;fill-opacity:1;fill-rule:evenodd;stroke:none"
           id="path95975"
           inkscape:connector-curvature="0" /><path
           d="m 391.435,310.857 c -0.648,-0.268 -1.357,-0.416 -2.099,-0.416 -3.027,0 -5.483,2.455 -5.483,5.484 0,2.682 1.924,4.914 4.468,5.39 1.138,4.844 5.487,8.451 10.678,8.451 0.997,0 1.963,-0.134 2.88,-0.383 1.297,3.711 4.822,6.376 8.973,6.388 1.148,4.069 4.888,7.051 9.325,7.051 0.392,0 0.778,-0.023 1.158,-0.069 0.709,3.756 4.006,6.598 7.968,6.598 2.731,0 5.146,-1.351 6.616,-3.421 1.408,1.003 3.131,1.592 4.992,1.592 4.63,0 8.406,-3.652 8.609,-8.232 1.576,1.153 3.519,1.835 5.622,1.835 5.264,0 9.532,-4.268 9.532,-9.531 0,-0.27 -0.013,-0.534 -0.033,-0.798 1.268,0.599 2.686,0.934 4.184,0.934 5.429,0 9.829,-4.4 9.829,-9.829 0,-5.428 -4.4,-9.828 -9.829,-9.828 -1.043,0 -2.047,0.162 -2.99,0.463 -1.504,-2.864 -4.462,-4.845 -7.893,-4.961 -1.131,-4.179 -4.949,-7.253 -9.486,-7.253 -2.949,0 -5.593,1.299 -7.394,3.356 -1.694,-2.759 -4.739,-4.6 -8.213,-4.6 -3.406,0 -6.397,1.768 -8.111,4.436 -0.876,-0.299 -1.814,-0.462 -2.793,-0.462 -3.424,0 -6.384,1.992 -7.786,4.88 -0.43,-0.066 -0.871,-0.102 -1.32,-0.102 -2.557,0 -4.854,1.114 -6.432,2.882 -1.95,-1.789 -4.552,-2.882 -7.408,-2.882 -2.934,0 -5.598,1.151 -7.564,3.027"
           style="fill:#7d5125;fill-opacity:1;fill-rule:evenodd;stroke:none"
           id="path95977"
           inkscape:connector-curvature="0" /><path
           d="m 384.259,317.999 c 0.695,1.698 2.215,2.971 4.062,3.315 1.138,4.845 5.487,8.452 10.678,8.452 0.997,0 1.963,-0.134 2.88,-0.383 1.297,3.711 4.822,6.376 8.973,6.388 1.148,4.069 4.888,7.051 9.325,7.051 0.392,0 0.778,-0.023 1.158,-0.07 0.709,3.757 4.006,6.599 7.968,6.599 2.731,0 5.146,-1.351 6.616,-3.421 1.408,1.003 3.131,1.592 4.992,1.592 4.63,0 8.406,-3.652 8.609,-8.232 1.576,1.153 3.519,1.835 5.622,1.835 5.264,0 9.532,-4.267 9.532,-9.531 0,-0.27 -0.013,-0.534 -0.033,-0.798 0.237,0.113 0.482,0.216 0.73,0.309 -0.438,-5.024 -4.653,-8.965 -9.791,-8.965 -1.043,0 -2.047,0.163 -2.99,0.464 -1.503,-2.865 -4.46,-4.845 -7.891,-4.962 -1.132,-4.179 -4.951,-7.252 -9.488,-7.252 -2.948,0 -5.593,1.298 -7.395,3.356 -1.693,-2.76 -4.738,-4.6 -8.212,-4.6 -3.404,0 -6.397,1.768 -8.109,4.435 -0.876,-0.299 -1.816,-0.461 -2.793,-0.461 -3.425,0 -6.386,1.991 -7.787,4.879 -0.431,-0.066 -0.872,-0.101 -1.321,-0.101 -2.556,0 -4.852,1.113 -6.432,2.881 -1.95,-1.789 -4.552,-2.881 -7.408,-2.881 -0.506,0 -1.007,0.035 -1.495,0.101"
           style="fill:#996633;fill-opacity:1;fill-rule:evenodd;stroke:none"
           id="path95979"
           inkscape:connector-curvature="0" /><path
           d="m 390.323,325.507 c 2.007,2.59 5.146,4.259 8.676,4.259 0.997,0 1.963,-0.134 2.88,-0.383 1.297,3.711 4.822,6.376 8.973,6.388 1.148,4.069 4.888,7.051 9.325,7.051 0.392,0 0.778,-0.023 1.158,-0.07 0.709,3.757 4.006,6.599 7.968,6.599 2.731,0 5.146,-1.351 6.616,-3.421 1.408,1.003 3.131,1.592 4.992,1.592 h 0.03 c 0.679,-1.043 1.185,-2.208 1.478,-3.455 2.544,-0.476 4.469,-2.708 4.469,-5.39 0,-3.029 -2.455,-5.484 -5.485,-5.484 -0.742,0 -1.449,0.148 -2.096,0.416 -1.967,-1.876 -4.631,-3.027 -7.565,-3.027 -2.855,0 -5.458,1.092 -7.408,2.881 -1.579,-1.767 -3.875,-2.881 -6.432,-2.881 -0.449,0 -0.889,0.035 -1.32,0.102 -1.401,-2.888 -4.362,-4.88 -7.787,-4.88 -0.978,0 -1.917,0.162 -2.794,0.461 -1.712,-2.668 -4.703,-4.435 -8.108,-4.435 -3.072,0 -5.806,1.438 -7.57,3.677"
           style="fill:#b07c48;fill-opacity:1;fill-rule:evenodd;stroke:none"
           id="path95981"
           inkscape:connector-curvature="0" /><path
           d="m 284.857,363.502 c 25.285,-12.338 42.706,-38.296 42.706,-68.325 0,-30.029 -17.421,-55.986 -42.706,-68.324 l -6.763,69.036 z"
           style="fill:#93c733;fill-opacity:1;fill-rule:evenodd;stroke:none"
           id="path95983"
           inkscape:connector-curvature="0" /><path
           d="m 302.658,351.424 c 15.299,-13.9 24.905,-33.95 24.905,-56.247 0,-26.994 -14.081,-50.697 -35.293,-64.174 24.798,38.243 27.743,78.43 10.388,120.421"
           style="fill:#87b82b;fill-opacity:1;fill-rule:evenodd;stroke:none"
           id="path95985"
           inkscape:connector-curvature="0" /><path
           d="m 284.855,363.504 c -25.284,-12.338 -42.706,-38.296 -42.706,-68.324 0,-30.03 17.422,-55.987 42.706,-68.326 z"
           style="fill:#a2d642;fill-opacity:1;fill-rule:evenodd;stroke:none"
           id="path95987"
           inkscape:connector-curvature="0" /><path
           d="m 281.389,361.7 c -23.396,-12.95 -39.24,-37.885 -39.24,-66.52 0,-23.631 10.791,-44.74 27.71,-58.675 -16.928,40.577 -19.408,81.959 11.53,125.195"
           style="fill:#b6e65c;fill-opacity:1;fill-rule:evenodd;stroke:none"
           id="path95989"
           inkscape:connector-curvature="0" /><path
           d="m 284.858,339.187 2.696,-180.97 -2.696,-105.737 h -16.173 c 12.58,84.424 14.022,186.113 16.173,286.707"
           style="fill:#87b82b;fill-opacity:1;fill-rule:evenodd;stroke:none"
           id="path95991"
           inkscape:connector-curvature="0" /><path
           d="M 284.858,339.187 V 52.48 h 16.174 c -12.581,84.424 -14.025,186.113 -16.174,286.707"
           style="fill:#74a120;fill-opacity:1;fill-rule:evenodd;stroke:none"
           id="path95993"
           inkscape:connector-curvature="0" /><path
           d="m 160.514,263.196 c -11.061,-30.854 -4.488,-66.677 19.93,-91.731 24.419,-25.052 60.064,-32.54 91.191,-22.274 l -50.498,63.096 z"
           style="fill:#93c733;fill-opacity:1;fill-rule:evenodd;stroke:none"
           id="path95995"
           inkscape:connector-curvature="0" /><path
           d="m 155.484,238.644 c -1.461,-24.035 6.829,-48.577 24.96,-67.179 21.952,-22.522 52.973,-30.844 81.631,-24.839 -51.789,11.739 -86.924,42.872 -106.591,92.018"
           style="fill:#87b82b;fill-opacity:1;fill-rule:evenodd;stroke:none"
           id="path95997"
           inkscape:connector-curvature="0" /><path
           d="m 160.513,263.199 c 31.128,10.268 66.771,2.78 91.19,-22.274 24.419,-25.053 30.993,-60.875 19.93,-91.731 z"
           style="fill:#a2d642;fill-opacity:1;fill-rule:evenodd;stroke:none"
           id="path95999"
           inkscape:connector-curvature="0" /><path
           d="m 164.87,264.513 c 30.052,8.221 63.546,0.303 86.833,-23.588 19.218,-19.715 27.38,-46.1 24.595,-71.487 -18.873,47.624 -50.455,84.162 -111.428,95.075"
           style="fill:#b6e65c;fill-opacity:1;fill-rule:evenodd;stroke:none"
           id="path96001"
           inkscape:connector-curvature="0" /><path
           d="m 410.514,250.767 c 11.026,-32.799 3.332,-70.469 -22.969,-96.398 -26.301,-25.926 -64.077,-33.08 -96.715,-21.587 l 54.627,65.531 z"
           style="fill:#93c733;fill-opacity:1;fill-rule:evenodd;stroke:none"
           id="path96003"
           inkscape:connector-curvature="0" /><path
           d="m 415.307,224.746 c 1.035,-25.399 -8.232,-51.125 -27.762,-70.377 -23.643,-23.306 -56.559,-31.439 -86.68,-24.495 54.909,11.298 92.649,43.417 114.442,94.872"
           style="fill:#87b82b;fill-opacity:1;fill-rule:evenodd;stroke:none"
           id="path96005"
           inkscape:connector-curvature="0" /><path
           d="m 410.516,250.77 c -32.637,11.492 -70.414,4.339 -96.715,-21.588 -26.301,-25.926 -33.994,-63.598 -22.969,-96.397 z"
           style="fill:#a2d642;fill-opacity:1;fill-rule:evenodd;stroke:none"
           id="path96007"
           inkscape:connector-curvature="0" /><path
           d="m 405.945,252.247 c -31.546,9.312 -67.062,1.66 -92.144,-23.065 -20.697,-20.404 -29.868,-48.079 -27.465,-74.931 20.922,49.862 55.025,87.762 119.609,97.996"
           style="fill:#b6e65c;fill-opacity:1;fill-rule:evenodd;stroke:none"
           id="path96009"
           inkscape:connector-curvature="0" /><path
           d="m 176.972,244.688 c 89.251,-84.035 121.113,-82.499 105.062,-204 h -12.622 c 23.119,132.819 -32.536,130.67 -92.44,204"
           style="fill:#87b82b;fill-opacity:1;fill-rule:evenodd;stroke:none"
           id="path96011"
           inkscape:connector-curvature="0" /><path
           d="m 176.972,244.688 c 86.27,-88.509 113.622,-76.479 105.062,-204 h 12.626 c -2.229,132.571 -20.528,113.1 -117.688,204"
           style="fill:#74a120;fill-opacity:1;fill-rule:evenodd;stroke:none"
           id="path96013"
           inkscape:connector-curvature="0" /><path
           d="M 367.771,207.802 C 301.611,145.511 277.99,146.649 289.888,56.582 h 9.358 c -17.139,98.455 24.119,96.863 68.525,151.22"
           style="fill:#74a120;fill-opacity:1;fill-rule:evenodd;stroke:none"
           id="path96015"
           inkscape:connector-curvature="0" /><path
           d="M 367.771,207.802 C 303.819,142.192 283.544,151.11 289.888,56.582 h -9.357 c 1.653,98.272 15.217,83.838 87.24,151.22"
           style="fill:#87b82b;fill-opacity:1;fill-rule:evenodd;stroke:none"
           id="path96017"
           inkscape:connector-curvature="0" /><path
           d="m 240.476,30.145 c -0.648,-0.268 -1.356,-0.415 -2.099,-0.415 -3.029,0 -5.483,2.454 -5.483,5.484 0,2.682 1.925,4.912 4.469,5.39 1.138,4.844 5.486,8.45 10.676,8.45 0.997,0 1.963,-0.134 2.882,-0.383 1.295,3.712 4.822,6.375 8.973,6.387 1.147,4.068 4.886,7.05 9.323,7.05 0.393,0 0.779,-0.021 1.159,-0.066 0.708,3.755 4.005,6.597 7.967,6.597 2.733,0 5.147,-1.351 6.615,-3.42 1.41,1.001 3.133,1.591 4.993,1.591 4.631,0 8.408,-3.652 8.609,-8.235 1.576,1.154 3.519,1.839 5.623,1.839 5.264,0 9.531,-4.269 9.531,-9.534 0,-0.268 -0.011,-0.532 -0.033,-0.794 1.27,0.596 2.688,0.931 4.183,0.931 5.429,0 9.829,-4.401 9.829,-9.829 0,-5.426 -4.4,-9.83 -9.829,-9.83 -1.042,0 -2.046,0.165 -2.988,0.466 -1.503,-2.863 -4.461,-4.845 -7.892,-4.963 -1.131,-4.177 -4.951,-7.252 -9.486,-7.252 -2.951,0 -5.595,1.3 -7.396,3.357 -1.694,-2.76 -4.739,-4.601 -8.214,-4.601 -3.405,0 -6.396,1.768 -8.108,4.437 -0.876,-0.298 -1.815,-0.463 -2.793,-0.463 -3.425,0 -6.386,1.993 -7.786,4.882 -0.432,-0.068 -0.873,-0.104 -1.322,-0.104 -2.555,0 -4.852,1.113 -6.43,2.885 -1.952,-1.793 -4.554,-2.885 -7.41,-2.885 -2.932,0 -5.598,1.154 -7.563,3.028"
           style="fill:#7d5125;fill-opacity:1;fill-rule:evenodd;stroke:none"
           id="path96019"
           inkscape:connector-curvature="0" /><path
           d="m 233.3,37.286 c 0.694,1.698 2.216,2.971 4.063,3.318 1.138,4.841 5.486,8.45 10.676,8.45 0.997,0 1.963,-0.134 2.882,-0.383 1.295,3.712 4.822,6.375 8.973,6.387 1.147,4.068 4.886,7.05 9.323,7.05 0.393,0 0.779,-0.021 1.159,-0.066 0.708,3.755 4.005,6.597 7.969,6.597 2.731,0 5.145,-1.351 6.613,-3.42 1.41,1.001 3.133,1.591 4.993,1.591 4.631,0 8.408,-3.652 8.609,-8.235 1.576,1.154 3.519,1.835 5.623,1.835 5.264,0 9.531,-4.265 9.531,-9.53 0,-0.268 -0.011,-0.532 -0.032,-0.794 0.237,0.109 0.481,0.213 0.73,0.307 -0.438,-5.024 -4.654,-8.965 -9.791,-8.965 -1.042,0 -2.046,0.165 -2.989,0.463 -1.504,-2.864 -4.462,-4.845 -7.893,-4.96 -1.132,-4.178 -4.95,-7.255 -9.486,-7.255 -2.949,0 -5.595,1.3 -7.397,3.356 -1.693,-2.757 -4.736,-4.597 -8.211,-4.597 -3.405,0 -6.398,1.767 -8.11,4.433 -0.876,-0.298 -1.816,-0.46 -2.793,-0.46 -3.425,0 -6.385,1.99 -7.786,4.878 -0.43,-0.066 -0.872,-0.099 -1.322,-0.099 -2.556,0 -4.852,1.113 -6.43,2.881 -1.951,-1.79 -4.552,-2.881 -7.41,-2.881 -0.506,0 -1.005,0.033 -1.494,0.099"
           style="fill:#996633;fill-opacity:1;fill-rule:evenodd;stroke:none"
           id="path96021"
           inkscape:connector-curvature="0" /><path
           d="m 239.363,44.797 c 2.008,2.59 5.146,4.257 8.676,4.257 0.997,0 1.963,-0.134 2.882,-0.383 1.295,3.712 4.822,6.375 8.973,6.387 1.147,4.068 4.886,7.05 9.323,7.05 0.393,0 0.779,-0.021 1.159,-0.066 0.708,3.755 4.005,6.597 7.969,6.597 2.731,0 5.145,-1.351 6.613,-3.42 1.41,1.001 3.133,1.591 4.993,1.591 h 0.032 c 0.677,-1.043 1.184,-2.209 1.477,-3.456 2.544,-0.475 4.469,-2.707 4.469,-5.39 0,-3.027 -2.456,-5.484 -5.484,-5.484 -0.742,0 -1.45,0.15 -2.096,0.417 -1.969,-1.877 -4.633,-3.028 -7.565,-3.028 -2.858,0 -5.458,1.093 -7.41,2.882 -1.58,-1.768 -3.874,-2.882 -6.43,-2.882 -0.45,0 -0.892,0.037 -1.322,0.101 -1.401,-2.888 -4.361,-4.878 -7.786,-4.878 -0.978,0 -1.917,0.161 -2.793,0.463 -1.713,-2.669 -4.705,-4.437 -8.11,-4.437 -3.07,0 -5.806,1.439 -7.57,3.679"
           style="fill:#b07c48;fill-opacity:1;fill-rule:evenodd;stroke:none"
           id="path96023"
           inkscape:connector-curvature="0" /></g></g></g></svg>